<svg width="20" height="20" viewBox="0 0 20 20" fill="none" xmlns="http://www.w3.org/2000/svg">
<g clip-path="url(#clip0)">
<path d="M8.85396 14.646C8.65896 14.451 8.34196 14.451 8.14696 14.646L5.00096 17.792V0.499023C5.00096 0.223023 4.77696 -0.000976562 4.50096 -0.000976562C4.22496 -0.000976562 4.00096 0.223023 4.00096 0.499023V17.792L0.854959 14.646C0.659959 14.451 0.342959 14.451 0.147959 14.646C-0.047041 14.841 -0.047041 15.158 0.147959 15.353L4.14796 19.353C4.24596 19.451 4.37396 19.499 4.50196 19.499C4.62996 19.499 4.75796 19.45 4.85596 19.353L8.85596 15.353C9.05096 15.158 9.05096 14.841 8.85596 14.646H8.85396Z" fill="#FCFCFC"/>
<path d="M19.96 7.303L16.96 0.303C16.881 0.119 16.7 0 16.5 0C16.3 0 16.119 0.119 16.04 0.303L13.04 7.303C12.931 7.557 13.049 7.851 13.303 7.96C13.557 8.069 13.851 7.951 13.96 7.697L15.116 5H17.885L19.041 7.697C19.122 7.887 19.307 8 19.501 8C19.567 8 19.634 7.987 19.698 7.959C19.952 7.85 20.069 7.556 19.961 7.302L19.96 7.303ZM15.544 4L16.5 1.769L17.456 4H15.544Z" fill="#FCFCFC"/>
<path d="M18.5 20H14.5C14.322 20 14.157 19.905 14.068 19.751C13.979 19.597 13.978 19.407 14.066 19.252L17.639 13H14.501C14.225 13 14.001 12.776 14.001 12.5C14.001 12.224 14.225 12 14.501 12H18.501C18.679 12 18.844 12.095 18.933 12.249C19.022 12.403 19.023 12.593 18.935 12.748L15.362 19H18.5C18.776 19 19 19.224 19 19.5C19 19.776 18.776 20 18.5 20V20Z" fill="#FCFCFC"/>
</g>
<defs>
<clipPath id="clip0">
<rect width="20" height="20" fill="white"/>
</clipPath>
</defs>
</svg>
