<svg width="20" height="20" viewBox="0 0 20 20" fill="none" xmlns="http://www.w3.org/2000/svg">
<g clip-path="url(#clip0)">
<path d="M8.85396 14.646C8.65896 14.451 8.34196 14.451 8.14696 14.646L5.00096 17.792V0.499023C5.00096 0.223023 4.77696 -0.000976562 4.50096 -0.000976562C4.22496 -0.000976562 4.00096 0.223023 4.00096 0.499023V17.792L0.854959 14.646C0.659959 14.451 0.342959 14.451 0.147959 14.646C-0.047041 14.841 -0.047041 15.158 0.147959 15.353L4.14796 19.353C4.24596 19.451 4.37396 19.499 4.50196 19.499C4.62996 19.499 4.75796 19.45 4.85596 19.353L8.85596 15.353C9.05096 15.158 9.05096 14.841 8.85596 14.646H8.85396Z" fill="#FCFCFC"/>
<path d="M19.9606 19.303L16.9606 12.303C16.8816 12.119 16.7006 12 16.5006 12C16.3006 12 16.1196 12.119 16.0406 12.303L13.0406 19.303C12.9316 19.557 13.0496 19.851 13.3036 19.96C13.5576 20.069 13.8516 19.951 13.9606 19.697L15.1166 17H17.8856L19.0416 19.697C19.1226 19.887 19.3076 20 19.5016 20C19.5676 20 19.6346 19.987 19.6986 19.959C19.9526 19.85 20.0696 19.556 19.9616 19.302L19.9606 19.303ZM15.5446 16L16.5006 13.769L17.4566 16H15.5446Z" fill="#FCFCFC"/>
<path d="M18.5 8H14.5C14.322 8 14.157 7.905 14.068 7.751C13.979 7.597 13.978 7.407 14.066 7.252L17.639 1H14.501C14.225 1 14.001 0.776 14.001 0.5C14.001 0.224 14.225 0 14.501 0H18.501C18.679 0 18.844 0.0949996 18.933 0.249C19.022 0.403 19.023 0.593 18.935 0.748L15.362 7H18.5C18.776 7 19 7.224 19 7.5C19 7.776 18.776 8 18.5 8V8Z" fill="#FCFCFC"/>
</g>
<defs>
<clipPath id="clip0">
<rect width="20" height="20" fill="white"/>
</clipPath>
</defs>
</svg>
